# xmcd CD database file
# Copyright (C) 1996 Ti Kan
#
# Track frame offsets:
#  150
#  16440
#  35687
#  59955
#  88535
#  109280
#  132952
#  156630
#  180070
#
# Disc length: 2639 seconds
#
# Revision: 1
# Processed by: cddbd v1.4b41PL1 Copyright (c) Steve Scherf et al.
# Submitted via: CDWizzard Release:4.12
#
DISCID=7b0a4d09
DTITLE=Muddy Waters - Muddy Waters Woodstock Album
DYEAR=1900
DGENRE=
TTITLE0=Why Are People Like That
TTITLE1=Going Down To Main Street
TTITLE2=Born With Nothing
TTITLE3=Caldonia
TTITLE4=Funny Sounds
TTITLE5=Love, Deep As The Ocean
TTITLE6=Let The Good Times Roll
TTITLE7=Kansas City
TTITLE8=Fox Squirrel
EXTD=CHD 9359\n\nRecorded at Bearsville's Studio at Turtle Creek, New Yor
EXTD=k, February 6 and 7, 1975.\n\nMuddy Waters:  vocals and guitar\nPinetop 
EXTD=Perkins:  piano, vocals on "Kansas City" and "Caledonia"\nPaul Butte
EXTD=rfield:  harmonica\nBob Margolin:  guitar\nGarth Hudson:  organ, acc
EXTD=ordion, and saxophone\nLevon Helm:  drums and bass\nFred Carter:  bass
EXTD=and guitar\nHoward Johnson:  saxophone\n\nSubmitted 6/20/97\n[Jmccoy@
EXTD=efn.org]
EXTT0=
EXTT1=
EXTT2=
EXTT3=
EXTT4=
EXTT5=
EXTT6=
EXTT7=
EXTT8=
PLAYORDER=
